<svg xmlns="http://www.w3.org/2000/svg" viewBox="0 0 64 64" fill="none" role="img" aria-label="IndabaX AI Club">
  <circle cx="32" cy="32" r="30" fill="#004D38"/>
  <circle cx="32" cy="32" r="26.5" stroke="#FFC400" stroke-width="2"/>
  <path d="M21 27c1.2-6.5 5.2-11 11-11s9.8 4.5 11 11c.4 2.2-.2 4.2-1.8 5.4-1.8 1.3-4.4 1.1-6.2-.2-1.8 2.2-4.4 3.4-7 3.4s-5.2-1.2-7-3.4c-1.8 1.3-4.4 1.5-6.2.2C21.2 31.2 20.6 29.2 21 27Z" fill="#F6F1E7"/>
  <path d="M32 32v8" stroke="#F6F1E7" stroke-width="3.2" stroke-linecap="round"/>
  <path d="M32 40c-4 4.5-8 6-11 7M32 40c4 4.5 8 6 11 7M32 40c-1.5 5-1 8 0 10M28 42c-3 3-4 6-4 8M36 42c3 3 4 6 4 8" stroke="#FFC400" stroke-width="1.6" stroke-linecap="round"/>
  <circle cx="21" cy="47" r="1.5" fill="#FFC400"/>
  <circle cx="43" cy="47" r="1.5" fill="#FFC400"/>
  <circle cx="28" cy="50" r="1.4" fill="#FFC400"/>
  <circle cx="36" cy="50" r="1.4" fill="#FFC400"/>
  <circle cx="32" cy="51.5" r="1.5" fill="#FFC400"/>
</svg>
